<?xml version="1.0" encoding="UTF-8"?>
<svg id="Layer_2" data-name="Layer 2" xmlns="http://www.w3.org/2000/svg" xmlns:xlink="http://www.w3.org/1999/xlink" viewBox="0 0 923.08 215.95">
  <defs>
    <style>
      .cls-1 {
        fill: #fff;
        opacity: .25;
      }

      .cls-1, .cls-2, .cls-3, .cls-4, .cls-5, .cls-6, .cls-7, .cls-8 {
        fill-rule: evenodd;
      }

      .cls-1, .cls-6, .cls-7 {
        isolation: isolate;
      }

      .cls-2 {
        fill: url(#linear-gradient-4);
      }

      .cls-3 {
        fill: #808285;
      }

      .cls-4 {
        fill: url(#linear-gradient-2);
      }

      .cls-5 {
        fill: url(#linear-gradient);
      }

      .cls-6 {
        opacity: .2;
      }

      .cls-7 {
        opacity: .12;
      }

      .cls-8 {
        fill: url(#linear-gradient-3);
      }
    </style>
    <linearGradient id="linear-gradient" x1="3748.35" y1="-816.07" x2="3641.66" y2="-760.99" gradientTransform="translate(-4850.09 2100.65) scale(1.32 2.56)" gradientUnits="userSpaceOnUse">
      <stop offset="0" stop-color="#00a0ff"/>
      <stop offset="0" stop-color="#00a1ff"/>
      <stop offset=".26" stop-color="#00beff"/>
      <stop offset=".51" stop-color="#00d2ff"/>
      <stop offset=".76" stop-color="#00dfff"/>
      <stop offset="1" stop-color="#00e3ff"/>
    </linearGradient>
    <linearGradient id="linear-gradient-2" x1="3984" y1="-378.51" x2="3788.2" y2="-378.51" gradientTransform="translate(-3932.64 438.57) scale(1.04 .87)" gradientUnits="userSpaceOnUse">
      <stop offset="0" stop-color="#ffe000"/>
      <stop offset=".41" stop-color="#ffbd00"/>
      <stop offset=".78" stop-color="orange"/>
      <stop offset="1" stop-color="#ff9c00"/>
    </linearGradient>
    <linearGradient id="linear-gradient-3" x1="3648.15" y1="-568.02" x2="3536.02" y2="-422.56" gradientTransform="translate(-6091.13 873.22) scale(1.7 1.31)" gradientUnits="userSpaceOnUse">
      <stop offset="0" stop-color="#ff3a44"/>
      <stop offset="1" stop-color="#c31162"/>
    </linearGradient>
    <linearGradient id="linear-gradient-4" x1="3561.78" y1="-708.25" x2="3611.85" y2="-643.26" gradientTransform="translate(-6091.13 871.24) scale(1.7 1.31)" gradientUnits="userSpaceOnUse">
      <stop offset="0" stop-color="#32a071"/>
      <stop offset=".07" stop-color="#2da771"/>
      <stop offset=".48" stop-color="#15cf74"/>
      <stop offset=".8" stop-color="#06e775"/>
      <stop offset="1" stop-color="#00f076"/>
    </linearGradient>
  </defs>
  <g id="Layer_2-2" data-name="Layer 2">
    <g id="g1231">
      <path id="path1192" class="cls-5" d="M3.82,3.31C1.4,5.92,0,9.94,0,15.15V200.76c0,5.22,1.4,9.23,3.91,11.75l.66,.56L108.57,109.07v-2.34L4.48,2.76s-.66,.56-.66,.56Z"/>
      <path id="path1203" class="cls-4" d="M143.17,143.87l-34.69-34.7v-2.43l34.7-34.7,.75,.47,41.04,23.32c11.75,6.62,11.75,17.54,0,24.25l-41.04,23.32s-.76,.47-.76,.47h0Z"/>
      <path id="path1210" class="cls-8" d="M143.92,143.41l-35.44-35.45L3.82,212.61c3.82,4.11,10.25,4.57,17.45,.56l122.65-69.76"/>
      <path id="path1223" class="cls-2" d="M143.92,72.52L21.27,2.85C14.09-1.26,7.65-.7,3.82,3.4L108.47,107.96l35.45-35.44Z"/>
      <path id="path1225" class="cls-6" d="M143.17,142.66L21.36,211.86c-6.81,3.91-12.88,3.64-16.79,.09l-.66,.66,.66,.56c3.91,3.54,9.98,3.82,16.79-.09l122.65-69.67-.84-.75Z"/>
      <path id="path1227" class="cls-7" d="M184.96,118.87l-41.88,23.79,.75,.75,41.04-23.32c5.88-3.36,8.77-7.74,8.77-12.13-.37,4.02-3.36,7.84-8.68,10.91h0Z"/>
      <path id="path1229" class="cls-1" d="M21.27,4.06L184.96,97.06c5.32,2.98,8.3,6.9,8.77,10.91,0-4.38-2.89-8.77-8.77-12.13L21.27,2.85C9.52-3.87,0,1.72,0,15.15v1.21C0,2.94,9.52-2.56,21.27,4.06Z"/>
    </g>
    <g id="g1237">
      <path id="path1233" class="cls-3" d="M233.68,102.07c0-29.73,24.99-53.94,54.72-53.94,16.44,0,28.13,6.45,36.96,14.86l-10.39,10.39c-6.31-5.92-14.86-10.52-26.58-10.52-21.71,0-38.68,17.48-38.68,39.19s16.97,39.21,38.67,39.21c14.08,0,22.09-5.65,27.22-10.8,4.21-4.21,6.96-10.25,8.03-18.55h-35.23v-14.7h49.59c.52,2.63,.79,5.79,.79,9.2,0,11.04-3.03,24.73-12.77,34.47-9.48,9.87-21.58,15.13-37.63,15.13-29.74,0-54.73-24.18-54.73-53.94l.02-.02Zm145.2-15.52c-19.2,0-34.88,14.61-34.88,34.72s15.67,34.72,34.88,34.72,34.86-14.74,34.86-34.73-15.65-34.72-34.86-34.71Zm0,55.79c-10.52,0-19.6-8.68-19.6-21.05s9.07-21.05,19.6-21.05,19.59,8.54,19.59,21.05-9.06,21.05-19.59,21.05Zm76.06-55.79c-19.2,0-34.86,14.61-34.86,34.72s15.65,34.72,34.86,34.72,34.86-14.74,34.86-34.73-15.64-34.72-34.86-34.71h0Zm0,55.79c-10.52,0-19.6-8.68-19.6-21.05s9.07-21.05,19.6-21.05,19.6,8.54,19.6,21.05-9.09,21.05-19.6,21.05h0Zm93.35-53.68v5.65h-.52c-3.41-4.1-9.99-7.77-18.27-7.77-17.37,0-33.3,15.27-33.3,34.88s15.93,34.6,33.3,34.6c8.28,0,14.86-3.68,18.27-7.88h.52v4.99c0,13.28-7.1,20.4-18.55,20.4-9.35,0-15.13-6.72-17.5-12.35l-13.29,5.52c3.81,9.2,13.95,20.52,30.79,20.52,17.88,0,33.01-10.54,33.01-36.19v-62.38h-14.45Zm-17.49,53.69c-10.52,0-19.35-8.83-19.35-20.92s8.83-21.18,19.35-21.18,18.55,8.94,18.55,21.18c.01,12.09-8.14,20.92-18.55,20.92Zm42.48-90.52h15.27v102.09h-15.27V51.82Zm57.12,90.52c-7.76,0-13.29-3.56-16.82-10.52l46.44-19.23-1.6-3.95c-2.88-7.75-11.71-22.1-29.73-22.1s-32.76,14.08-32.76,34.73c0,19.45,14.74,34.72,34.47,34.72,15.93,0,25.14-9.72,28.95-15.39l-11.84-7.88c-3.96,5.8-9.36,9.62-17.11,9.61h0Zm-1.19-42.37c6.05,0,11.17,3.03,12.89,7.36l-31.06,12.9c-.39-13.42,10.4-20.26,18.17-20.26h0Z"/>
      <path id="path1235" class="cls-3" d="M727,51.82h-36.5v102.09h15.23v-38.67h21.28c16.89,0,33.5-12.23,33.5-31.72s-16.6-31.69-33.48-31.69h-.03Zm.4,49.2h-21.67v-35.01h21.67c11.39,0,17.88,9.45,17.88,17.5s-6.49,17.5-17.88,17.5Zm56.74,52.88V51.82h-15.23v102.09h15.23Zm68.44-.18v-39.14c0-18.13-13.54-28.23-31.02-28.23-11.01,0-22.44,4.87-27.17,15.63l13.52,5.64c2.89-5.64,8.27-7.49,13.93-7.49,7.87,0,15.88,4.73,16.01,13.15v1.05c-2.76-1.58-8.66-3.95-15.89-3.95-14.58,0-29.41,8.01-29.41,22.98,0,13.67,11.96,22.46,25.35,22.46,10.25,0,15.89-4.59,19.43-9.97h.52v7.88h14.72v-.02Zm-32.83-11.41c-4.99,0-11.96-2.5-11.96-8.66,0-7.88,8.68-10.92,16.16-10.92,6.7,0,9.85,1.44,13.93,3.41-1.17,9.17-8.92,16.05-18.14,16.16h0Zm86.42-53.72l-17.47,44.25h-.52l-18.13-44.25h-16.41l27.18,61.87-15.51,34.41h15.89l41.89-96.27h-16.92Z"/>
    </g>
  </g>
</svg>